<mxfile host="app.diagrams.net" modified="2023-03-15T07:21:06.939Z" agent="5.0 (X11; Linux x86_64) AppleWebKit/537.36 (KHTML, like Gecko) Chrome/110.0.0.0 Safari/537.36" etag="MYZNZsF2ZqxHQKuoRc35" version="21.0.6" type="github">
  <diagram name="Page-1" id="Nf_7jHmQ05PDT4Q4s1YV">
    <mxGraphModel dx="934" dy="659" grid="1" gridSize="10" guides="1" tooltips="1" connect="1" arrows="1" fold="1" page="1" pageScale="1" pageWidth="827" pageHeight="1169" math="0" shadow="0">
      <root>
        <mxCell id="0" />
        <mxCell id="1" parent="0" />
        <mxCell id="XN7-d1IDMOTUhrD0GANI-1" value="" style="rounded=0;whiteSpace=wrap;html=1;" parent="1" vertex="1">
          <mxGeometry x="110" y="550" width="510" height="40" as="geometry" />
        </mxCell>
        <mxCell id="XN7-d1IDMOTUhrD0GANI-2" value="system call" style="text;strokeColor=none;align=center;fillColor=none;html=1;verticalAlign=middle;whiteSpace=wrap;rounded=0;" parent="1" vertex="1">
          <mxGeometry x="500" y="560" width="120" height="30" as="geometry" />
        </mxCell>
        <mxCell id="XN7-d1IDMOTUhrD0GANI-3" value="" style="rounded=0;whiteSpace=wrap;html=1;" parent="1" vertex="1">
          <mxGeometry x="105" y="640" width="510" height="170" as="geometry" />
        </mxCell>
        <mxCell id="XN7-d1IDMOTUhrD0GANI-4" value="vfs" style="text;strokeColor=none;align=center;fillColor=none;html=1;verticalAlign=middle;whiteSpace=wrap;rounded=0;" parent="1" vertex="1">
          <mxGeometry x="560" y="790" width="60" height="30" as="geometry" />
        </mxCell>
        <mxCell id="XN7-d1IDMOTUhrD0GANI-5" value="page 4096B" style="text;strokeColor=none;align=center;fillColor=none;html=1;verticalAlign=middle;whiteSpace=wrap;rounded=0;" parent="1" vertex="1">
          <mxGeometry x="620" y="790" width="80" height="30" as="geometry" />
        </mxCell>
        <mxCell id="XN7-d1IDMOTUhrD0GANI-7" value="" style="rounded=0;whiteSpace=wrap;html=1;" parent="1" vertex="1">
          <mxGeometry x="110" y="870" width="510" height="110" as="geometry" />
        </mxCell>
        <mxCell id="XN7-d1IDMOTUhrD0GANI-9" value="concrete fs(ext4, fat32)" style="text;strokeColor=none;align=center;fillColor=none;html=1;verticalAlign=middle;whiteSpace=wrap;rounded=0;" parent="1" vertex="1">
          <mxGeometry x="470" y="950" width="150" height="30" as="geometry" />
        </mxCell>
        <mxCell id="XN7-d1IDMOTUhrD0GANI-10" value="" style="rounded=0;whiteSpace=wrap;html=1;" parent="1" vertex="1">
          <mxGeometry x="110" y="1020" width="510" height="70" as="geometry" />
        </mxCell>
        <mxCell id="XN7-d1IDMOTUhrD0GANI-11" value="disk drive" style="text;strokeColor=none;align=center;fillColor=none;html=1;verticalAlign=middle;whiteSpace=wrap;rounded=0;" parent="1" vertex="1">
          <mxGeometry x="560" y="1060" width="60" height="30" as="geometry" />
        </mxCell>
        <mxCell id="XN7-d1IDMOTUhrD0GANI-12" value="disk sector 512 B" style="text;strokeColor=none;align=center;fillColor=none;html=1;verticalAlign=middle;whiteSpace=wrap;rounded=0;" parent="1" vertex="1">
          <mxGeometry x="620" y="1060" width="100" height="30" as="geometry" />
        </mxCell>
        <mxCell id="XN7-d1IDMOTUhrD0GANI-13" value="logic sector or cluster&lt;br&gt;(1024B, 2048B, 4096B......)" style="text;strokeColor=none;align=center;fillColor=none;html=1;verticalAlign=middle;whiteSpace=wrap;rounded=0;" parent="1" vertex="1">
          <mxGeometry x="620" y="950" width="160" height="30" as="geometry" />
        </mxCell>
        <mxCell id="XN7-d1IDMOTUhrD0GANI-14" value="page cache" style="text;strokeColor=none;align=center;fillColor=none;html=1;verticalAlign=middle;whiteSpace=wrap;rounded=0;fontSize=16;" parent="1" vertex="1">
          <mxGeometry x="290" y="830" width="140" height="30" as="geometry" />
        </mxCell>
        <mxCell id="XN7-d1IDMOTUhrD0GANI-15" value="buffer cache" style="text;strokeColor=none;align=center;fillColor=none;html=1;verticalAlign=middle;whiteSpace=wrap;rounded=0;fontSize=16;" parent="1" vertex="1">
          <mxGeometry x="295" y="990" width="140" height="30" as="geometry" />
        </mxCell>
        <mxCell id="01RIman0dI4sC2b8uAiO-1" value="" style="rounded=0;whiteSpace=wrap;html=1;fontSize=16;direction=east;" parent="1" vertex="1">
          <mxGeometry x="600" y="80" width="70" height="220" as="geometry" />
        </mxCell>
        <mxCell id="01RIman0dI4sC2b8uAiO-2" value="struct i_node" style="text;strokeColor=none;align=center;fillColor=none;html=1;verticalAlign=middle;whiteSpace=wrap;rounded=0;fontSize=16;" parent="1" vertex="1">
          <mxGeometry x="580" y="320" width="130" height="30" as="geometry" />
        </mxCell>
        <mxCell id="01RIman0dI4sC2b8uAiO-5" value="" style="rounded=0;whiteSpace=wrap;html=1;fontSize=16;" parent="1" vertex="1">
          <mxGeometry x="280" y="150" width="160" height="80" as="geometry" />
        </mxCell>
        <mxCell id="01RIman0dI4sC2b8uAiO-6" value="" style="rounded=0;whiteSpace=wrap;html=1;fontSize=16;fillColor=#ffe6cc;strokeColor=#000000;" parent="1" vertex="1">
          <mxGeometry x="280" y="150" width="26" height="80" as="geometry" />
        </mxCell>
        <mxCell id="01RIman0dI4sC2b8uAiO-7" value="a node of extent tree" style="text;strokeColor=none;align=center;fillColor=none;html=1;verticalAlign=middle;whiteSpace=wrap;rounded=0;fontSize=16;" parent="1" vertex="1">
          <mxGeometry x="250" y="250" width="200" height="30" as="geometry" />
        </mxCell>
        <mxCell id="01RIman0dI4sC2b8uAiO-14" value="struct ext4_extent_header" style="text;strokeColor=none;align=center;fillColor=none;html=1;verticalAlign=middle;whiteSpace=wrap;rounded=0;fontSize=12;fontFamily=Helvetica;fontColor=default;" parent="1" vertex="1">
          <mxGeometry x="260" y="90" width="60" height="30" as="geometry" />
        </mxCell>
        <mxCell id="01RIman0dI4sC2b8uAiO-15" value="" style="rounded=0;whiteSpace=wrap;html=1;fontSize=16;fillColor=#dae8fc;strokeColor=#000000;" parent="1" vertex="1">
          <mxGeometry x="306" y="150" width="26" height="80" as="geometry" />
        </mxCell>
        <mxCell id="01RIman0dI4sC2b8uAiO-18" value="" style="rounded=0;whiteSpace=wrap;html=1;fontSize=16;fillColor=#dae8fc;strokeColor=#000000;" parent="1" vertex="1">
          <mxGeometry x="332" y="150" width="26" height="80" as="geometry" />
        </mxCell>
        <mxCell id="01RIman0dI4sC2b8uAiO-19" value="" style="rounded=0;whiteSpace=wrap;html=1;fontSize=16;fillColor=#dae8fc;strokeColor=#000000;" parent="1" vertex="1">
          <mxGeometry x="358" y="150" width="26" height="80" as="geometry" />
        </mxCell>
        <mxCell id="01RIman0dI4sC2b8uAiO-20" value="" style="rounded=0;whiteSpace=wrap;html=1;fontSize=16;" parent="1" vertex="1">
          <mxGeometry x="384" y="150" width="26" height="80" as="geometry" />
        </mxCell>
        <mxCell id="01RIman0dI4sC2b8uAiO-21" value="..." style="text;strokeColor=none;align=center;fillColor=none;html=1;verticalAlign=middle;whiteSpace=wrap;rounded=0;fontSize=12;fontFamily=Helvetica;fontColor=default;" parent="1" vertex="1">
          <mxGeometry x="367" y="175" width="60" height="30" as="geometry" />
        </mxCell>
        <mxCell id="01RIman0dI4sC2b8uAiO-22" value="" style="rounded=0;whiteSpace=wrap;html=1;fontSize=16;fillColor=#fff2cc;strokeColor=#000000;" parent="1" vertex="1">
          <mxGeometry x="410" y="150" width="10" height="80" as="geometry" />
        </mxCell>
        <mxCell id="01RIman0dI4sC2b8uAiO-23" value="struct ext4_extent_idx&lt;br&gt;or&lt;br&gt;struct&lt;br&gt;ext4_extent" style="text;strokeColor=none;align=center;fillColor=none;html=1;verticalAlign=middle;whiteSpace=wrap;rounded=0;fontSize=12;fontFamily=Helvetica;fontColor=default;" parent="1" vertex="1">
          <mxGeometry x="375" y="50" width="60" height="30" as="geometry" />
        </mxCell>
        <mxCell id="01RIman0dI4sC2b8uAiO-25" value="" style="edgeStyle=none;orthogonalLoop=1;jettySize=auto;html=1;rounded=0;labelBackgroundColor=default;strokeColor=default;fontFamily=Helvetica;fontSize=12;fontColor=default;endArrow=classic;endFill=1;startSize=8;endSize=8;shape=connector;curved=1;" parent="1" edge="1">
          <mxGeometry width="120" relative="1" as="geometry">
            <mxPoint x="290" y="170" as="sourcePoint" />
            <mxPoint x="290" y="130" as="targetPoint" />
            <Array as="points" />
          </mxGeometry>
        </mxCell>
        <mxCell id="01RIman0dI4sC2b8uAiO-28" value="" style="edgeStyle=none;orthogonalLoop=1;jettySize=auto;html=1;rounded=0;labelBackgroundColor=default;strokeColor=default;fontFamily=Helvetica;fontSize=12;fontColor=default;endArrow=classic;endFill=1;startSize=8;endSize=8;shape=connector;curved=1;" parent="1" edge="1">
          <mxGeometry width="120" relative="1" as="geometry">
            <mxPoint x="320" y="170" as="sourcePoint" />
            <mxPoint x="370" y="110" as="targetPoint" />
            <Array as="points" />
          </mxGeometry>
        </mxCell>
        <mxCell id="01RIman0dI4sC2b8uAiO-29" value="struct&lt;br&gt;ext4_extent_tail" style="text;strokeColor=none;align=center;fillColor=none;html=1;verticalAlign=middle;whiteSpace=wrap;rounded=0;fontSize=12;fontFamily=Helvetica;fontColor=default;" parent="1" vertex="1">
          <mxGeometry x="470" y="80" width="60" height="30" as="geometry" />
        </mxCell>
        <mxCell id="01RIman0dI4sC2b8uAiO-30" value="" style="edgeStyle=none;orthogonalLoop=1;jettySize=auto;html=1;rounded=0;labelBackgroundColor=default;strokeColor=default;fontFamily=Helvetica;fontSize=12;fontColor=default;endArrow=classic;endFill=1;startSize=8;endSize=8;shape=connector;curved=1;" parent="1" edge="1">
          <mxGeometry width="120" relative="1" as="geometry">
            <mxPoint x="415" y="160" as="sourcePoint" />
            <mxPoint x="450" y="120" as="targetPoint" />
            <Array as="points" />
          </mxGeometry>
        </mxCell>
        <mxCell id="01RIman0dI4sC2b8uAiO-48" value="" style="rounded=0;whiteSpace=wrap;html=1;fontFamily=Helvetica;fontSize=12;fontColor=default;" parent="1" vertex="1">
          <mxGeometry x="600" y="120" width="70" height="100" as="geometry" />
        </mxCell>
        <mxCell id="01RIman0dI4sC2b8uAiO-55" value="" style="rounded=0;whiteSpace=wrap;html=1;fontFamily=Helvetica;fontSize=12;fillColor=#f8cecc;strokeColor=#b85450;" parent="1" vertex="1">
          <mxGeometry x="600" y="120" width="70" height="30" as="geometry" />
        </mxCell>
        <mxCell id="01RIman0dI4sC2b8uAiO-57" value="" style="edgeStyle=none;orthogonalLoop=1;jettySize=auto;html=1;rounded=0;labelBackgroundColor=default;strokeColor=default;fontFamily=Helvetica;fontSize=12;fontColor=default;endArrow=classic;endFill=1;startSize=8;endSize=8;shape=connector;curved=1;" parent="1" edge="1">
          <mxGeometry width="120" relative="1" as="geometry">
            <mxPoint x="650" y="134.47" as="sourcePoint" />
            <mxPoint x="760" y="90" as="targetPoint" />
            <Array as="points" />
          </mxGeometry>
        </mxCell>
        <mxCell id="01RIman0dI4sC2b8uAiO-59" value="" style="edgeStyle=none;orthogonalLoop=1;jettySize=auto;html=1;rounded=0;labelBackgroundColor=default;strokeColor=default;fontFamily=Helvetica;fontSize=12;fontColor=default;endArrow=classic;endFill=1;startSize=8;endSize=8;shape=connector;curved=1;entryX=0.286;entryY=0.667;entryDx=0;entryDy=0;entryPerimeter=0;" parent="1" target="01RIman0dI4sC2b8uAiO-55" edge="1">
          <mxGeometry width="120" relative="1" as="geometry">
            <mxPoint x="450" y="175" as="sourcePoint" />
            <mxPoint x="570" y="175" as="targetPoint" />
            <Array as="points" />
          </mxGeometry>
        </mxCell>
        <mxCell id="01RIman0dI4sC2b8uAiO-60" value="" style="whiteSpace=wrap;html=1;fontFamily=Helvetica;fontSize=12;fontColor=default;" parent="1" vertex="1">
          <mxGeometry x="780" y="60" width="90" height="160" as="geometry" />
        </mxCell>
        <mxCell id="01RIman0dI4sC2b8uAiO-62" value="on disk block" style="text;strokeColor=none;align=center;fillColor=none;html=1;verticalAlign=middle;whiteSpace=wrap;rounded=0;fontSize=12;fontFamily=Helvetica;fontColor=default;" parent="1" vertex="1">
          <mxGeometry x="795" y="20" width="60" height="30" as="geometry" />
        </mxCell>
        <mxCell id="01RIman0dI4sC2b8uAiO-63" value="" style="edgeStyle=none;orthogonalLoop=1;jettySize=auto;html=1;rounded=0;labelBackgroundColor=default;strokeColor=default;fontFamily=Helvetica;fontSize=12;fontColor=default;endArrow=classic;endFill=1;startSize=8;endSize=8;shape=connector;curved=1;" parent="1" edge="1">
          <mxGeometry width="120" relative="1" as="geometry">
            <mxPoint x="650" y="144.47" as="sourcePoint" />
            <mxPoint x="760" y="300" as="targetPoint" />
            <Array as="points" />
          </mxGeometry>
        </mxCell>
        <mxCell id="01RIman0dI4sC2b8uAiO-64" value="" style="whiteSpace=wrap;html=1;fontFamily=Helvetica;fontSize=12;fontColor=default;" parent="1" vertex="1">
          <mxGeometry x="780" y="290" width="90" height="160" as="geometry" />
        </mxCell>
        <mxCell id="01RIman0dI4sC2b8uAiO-65" value="" style="rounded=0;whiteSpace=wrap;html=1;fontFamily=Helvetica;fontSize=12;fillColor=#f8cecc;strokeColor=#b85450;" parent="1" vertex="1">
          <mxGeometry x="780" y="60" width="90" height="30" as="geometry" />
        </mxCell>
        <mxCell id="01RIman0dI4sC2b8uAiO-66" value="" style="rounded=0;whiteSpace=wrap;html=1;fontFamily=Helvetica;fontSize=12;fillColor=#f8cecc;strokeColor=#b85450;" parent="1" vertex="1">
          <mxGeometry x="780" y="90" width="90" height="30" as="geometry" />
        </mxCell>
        <mxCell id="01RIman0dI4sC2b8uAiO-67" value="" style="rounded=0;whiteSpace=wrap;html=1;fontFamily=Helvetica;fontSize=12;fillColor=#f8cecc;strokeColor=#b85450;" parent="1" vertex="1">
          <mxGeometry x="780" y="120" width="90" height="30" as="geometry" />
        </mxCell>
        <mxCell id="01RIman0dI4sC2b8uAiO-68" value="" style="rounded=0;whiteSpace=wrap;html=1;fontFamily=Helvetica;fontSize=12;fillColor=#f8cecc;strokeColor=#b85450;" parent="1" vertex="1">
          <mxGeometry x="780" y="290" width="90" height="30" as="geometry" />
        </mxCell>
        <mxCell id="01RIman0dI4sC2b8uAiO-69" value="" style="rounded=0;whiteSpace=wrap;html=1;fontFamily=Helvetica;fontSize=12;fillColor=#f8cecc;strokeColor=#b85450;" parent="1" vertex="1">
          <mxGeometry x="780" y="320" width="90" height="30" as="geometry" />
        </mxCell>
        <mxCell id="01RIman0dI4sC2b8uAiO-70" value="" style="rounded=0;whiteSpace=wrap;html=1;fontFamily=Helvetica;fontSize=12;fillColor=#f8cecc;strokeColor=#b85450;" parent="1" vertex="1">
          <mxGeometry x="780" y="350" width="90" height="30" as="geometry" />
        </mxCell>
        <mxCell id="01RIman0dI4sC2b8uAiO-71" value="" style="edgeStyle=none;orthogonalLoop=1;jettySize=auto;html=1;rounded=0;labelBackgroundColor=default;strokeColor=default;fontFamily=Helvetica;fontSize=12;fontColor=default;endArrow=classic;endFill=1;startSize=8;endSize=8;shape=connector;curved=1;" parent="1" edge="1">
          <mxGeometry width="120" relative="1" as="geometry">
            <mxPoint x="850" y="74.47" as="sourcePoint" />
            <mxPoint x="960" y="30" as="targetPoint" />
            <Array as="points" />
          </mxGeometry>
        </mxCell>
        <mxCell id="01RIman0dI4sC2b8uAiO-73" value="" style="whiteSpace=wrap;html=1;fontFamily=Helvetica;fontSize=12;fontColor=default;" parent="1" vertex="1">
          <mxGeometry x="970" y="25" width="90" height="160" as="geometry" />
        </mxCell>
        <mxCell id="01RIman0dI4sC2b8uAiO-75" value="contiguous&lt;br&gt;data blocks&lt;br&gt;with counts of&lt;br&gt;ee_len" style="text;strokeColor=none;align=center;fillColor=none;html=1;verticalAlign=middle;whiteSpace=wrap;rounded=0;fontSize=12;fontFamily=Helvetica;fontColor=default;" parent="1" vertex="1">
          <mxGeometry x="985" y="80" width="65" height="30" as="geometry" />
        </mxCell>
        <mxCell id="01RIman0dI4sC2b8uAiO-77" value="" style="whiteSpace=wrap;html=1;fontFamily=Helvetica;fontSize=12;fontColor=default;" parent="1" vertex="1">
          <mxGeometry x="970" y="185" width="90" height="160" as="geometry" />
        </mxCell>
        <mxCell id="xjSyadQtOKChHesJTP-h-1" value="" style="rounded=0;whiteSpace=wrap;html=1;fontSize=16;" parent="1" vertex="1">
          <mxGeometry x="1230" y="100" width="120" height="60" as="geometry" />
        </mxCell>
        <mxCell id="xjSyadQtOKChHesJTP-h-2" value="" style="rounded=0;whiteSpace=wrap;html=1;fontSize=16;" parent="1" vertex="1">
          <mxGeometry x="1350" y="100" width="120" height="60" as="geometry" />
        </mxCell>
        <mxCell id="xjSyadQtOKChHesJTP-h-3" value="block bitmap" style="text;strokeColor=none;align=center;fillColor=none;html=1;verticalAlign=middle;whiteSpace=wrap;rounded=0;fontSize=16;" parent="1" vertex="1">
          <mxGeometry x="1260" y="170" width="60" height="30" as="geometry" />
        </mxCell>
        <mxCell id="xjSyadQtOKChHesJTP-h-4" value="inode bitmap" style="text;strokeColor=none;align=center;fillColor=none;html=1;verticalAlign=middle;whiteSpace=wrap;rounded=0;fontSize=16;" parent="1" vertex="1">
          <mxGeometry x="1380" y="170" width="60" height="30" as="geometry" />
        </mxCell>
      </root>
    </mxGraphModel>
  </diagram>
</mxfile>
